<svg xmlns="http://www.w3.org/2000/svg" width="1024" height="1024" viewBox="0 0 1024 1024"><g fill="#494141"><path d="M128.1 843.32L0 585.597c55.9 1.025 104.962-8.388 147.162-28.212 42.175-19.825 64.812-54.638 67.862-104.462h-195.2V0h451.4c0 27.45 1 67.862 3.05 121.237 2.024 53.375 3.55 99.387 4.574 138.012 1 38.648.238 84.898-2.288 138.773-2.55 53.9-7.387 99.887-14.487 138.012-7.125 38.124-18.825 77.774-35.075 118.95-16.274 41.174-36.862 74.724-61.762 100.648-24.924 25.925-57.45 47.036-97.6 63.287-40.174 16.275-86.687 24.4-139.537 24.4zM672.826 843.32L544.728 585.597c55.9 1.025 104.962-8.388 147.16-28.212 42.177-19.825 64.813-54.638 67.863-104.462H564.553V0h451.397c0 27.45 1 67.862 3.05 121.237 2.024 53.375 3.55 99.387 4.574 138.012 1 38.648.238 84.898-2.287 138.773-2.55 53.9-7.387 99.887-14.487 138.012-7.125 38.124-18.824 77.774-35.075 118.95-16.274 41.174-36.862 74.724-61.762 100.648-24.925 25.925-57.45 47.036-97.6 63.287-40.175 16.275-86.686 24.4-139.537 24.4z"/></g></svg>